<?xml version="1.0" encoding="utf-8"?>
<!-- Generator: Adobe Illustrator 23.1.1, SVG Export Plug-In . SVG Version: 6.00 Build 0)  -->
<svg version="1.1" id="Ebene_1" xmlns="http://www.w3.org/2000/svg" xmlns:xlink="http://www.w3.org/1999/xlink" x="0px" y="0px"
	 viewBox="0 0 64 64" style="enable-background:new 0 0 64 64;" xml:space="preserve">
<style type="text/css">
	.st0{fill:#5B62F5;}
</style>
<title>redis 64</title>
<path class="st0" d="M60.5,6h-57C1.6,6,0,7.6,0,9.5v35C0,46.4,1.6,48,3.5,48h57c1.9,0,3.5-1.6,3.5-3.5v-35C64,7.6,62.4,6,60.5,6z
	 M3.5,7h57C61.9,7,63,8.1,63,9.5V42H1V9.5C1,8.1,2.1,7,3.5,7z M60.5,47h-57C2.1,47,1,45.9,1,44.5V43h62v1.5C63,45.9,61.9,47,60.5,47
	z M21.6,34.8L28.5,17l0.9,0.4l-6.9,17.8L21.6,34.8z M15.8,57.6l0.7,0.7c8.6-8.5,22.4-8.5,30.9,0l0.7-0.7
	C39.2,48.7,24.8,48.7,15.8,57.6z M36,31.7v-2.5c0-1.3,1-2.3,2.3-2.3v-1c-1.3,0-2.3-1-2.3-2.3V21c0-1.8-1.5-3.3-3.3-3.3v1
	c1.3,0,2.3,1,2.3,2.3v2.5c0,1.2,0.6,2.2,1.6,2.8C35.6,27,35,28,35,29.2v2.5c0,1.3-1,2.3-2.3,2.3v1C34.5,35,36,33.5,36,31.7z
	 M16,29.2v2.5c0,1.8,1.5,3.3,3.3,3.3v-1C18,34,17,33,17,31.7v-2.5c0-1.2-0.6-2.2-1.6-2.8c1-0.6,1.6-1.7,1.6-2.8V21
	c0-1.3,1-2.3,2.3-2.3v-1c-1.8,0-3.3,1.5-3.3,3.3v2.5c0,1.3-1,2.3-2.3,2.3v1C15,26.9,16,27.9,16,29.2z"/>
</svg>
