<?xml version="1.0" encoding="utf-8"?>
<svg version="1.1" id="Layer_1" xmlns="http://www.w3.org/2000/svg" xmlns:xlink="http://www.w3.org/1999/xlink" x="0px" y="0px"
	 viewBox="0 0 36 33.9" style="enable-background:new 0 0 36 33.9;" xml:space="preserve">
<style type="text/css">
	.st0{fill:#DC382D;}
</style>
<path class="st0" d="M16.5,5.1H12c-0.8,0-1.5,0.7-1.5,1.5v19.5c0,0.8,0.7,1.5,1.5,1.5h4.5c0.8,0,1.5-0.7,1.5-1.5V6.6
	C18,5.8,17.3,5.1,16.5,5.1z M17,26.1c0,0.3-0.3,0.5-0.5,0.5H12c-0.2,0-0.5-0.2-0.5-0.5V6.6c0-0.2,0.2-0.5,0.5-0.5h4.5
	c0.2,0,0.5,0.2,0.5,0.5V26.1z M27.3,26.1V3.2c0-0.8-0.7-1.5-1.5-1.5h-4.5c-0.8,0-1.5,0.7-1.5,1.5v22.9c0,0.8,0.7,1.5,1.5,1.5h4.5
	C26.6,27.6,27.3,26.9,27.3,26.1z M26.3,26.1c0,0.3-0.3,0.5-0.5,0.5h-4.5c-0.2,0-0.5-0.2-0.5-0.5V3.2c0-0.2,0.2-0.5,0.5-0.5h4.5
	c0.2,0,0.5,0.2,0.5,0.5V26.1z M7.2,8.5H2.7c-0.8,0-1.5,0.7-1.5,1.5v16.1c0,0.8,0.7,1.5,1.5,1.5h4.5c0.8,0,1.5-0.7,1.5-1.5V10
	C8.7,9.2,8,8.5,7.2,8.5z M7.7,26.1c0,0.3-0.3,0.5-0.5,0.5H2.7c-0.2,0-0.5-0.2-0.5-0.5V10c0-0.2,0.2-0.5,0.5-0.5h4.5
	c0.2,0,0.5,0.2,0.5,0.5V26.1z M34.8,23.5v5.8h-1v-3.9l-6.5,6.5l-0.7-0.7l6.7-6.6H29v-1H34.8z"/>
</svg>