<?xml version="1.0" encoding="utf-8"?>
<!-- Generator: Adobe Illustrator 23.1.1, SVG Export Plug-In . SVG Version: 6.00 Build 0)  -->
<svg version="1.1" id="Layer_1" xmlns="http://www.w3.org/2000/svg" xmlns:xlink="http://www.w3.org/1999/xlink" x="0px" y="0px"
	 viewBox="0 0 50.6 43.7" style="enable-background:new 0 0 50.6 43.7;" xml:space="preserve">
<style type="text/css">
	.st0{fill:#DC382D;}
</style>
<path class="st0" d="M43.6,30.5l-3.4-1.9l2.6-1.1c0.6-0.3,1-0.9,1-1.7c0-0.7-0.4-1.2-1-1.4L27.7,18c-1.6-0.8-3.3-0.8-5,0L7.5,24.5
	c-0.6,0.3-1,0.9-1,1.7c0,0.7,0.4,1.2,1,1.4l2.6,1.1l-3.4,1.9c-0.5,0.3-0.8,0.8-0.8,1.3c0,0.6,0.3,1.2,0.8,1.6L22,41.9
	c1,0.6,2.1,0.8,3.1,0.8c1.1,0,2.1-0.3,3.1-0.8l15.3-8.5c0.5-0.3,0.8-0.8,0.8-1.3C44.5,31.5,44.2,30.9,43.6,30.5z M7.9,26.6
	c-0.3-0.1-0.3-0.4-0.3-0.5c0-0.2,0.1-0.6,0.4-0.7l15.2-6.5l0,0c0.7-0.3,1.4-0.5,2.1-0.5c0.7,0,1.4,0.2,2.1,0.5l15.2,6.5
	c0.3,0.1,0.3,0.4,0.3,0.5c0,0.2-0.1,0.6-0.4,0.7l-3.3,1.4l-10.8-6C26.5,21,24,21,22,22.1l-10.8,6L7.9,26.6z M38,28.6l-10.7,4.6
	c-1.3,0.6-2.8,0.6-4.2,0l-10.7-4.6L22.5,23l0,0c0.8-0.5,1.8-0.7,2.7-0.7c0.9,0,1.8,0.2,2.6,0.7L38,28.6z M43.2,32.6l-15.3,8.5
	c-1.7,0.9-3.6,0.9-5.3,0L7.3,32.6c-0.2-0.2-0.3-0.4-0.3-0.7c0-0.1,0-0.4,0.3-0.5l4-2.2l11.4,4.9c0.8,0.3,1.7,0.5,2.5,0.5
	c0.8,0,1.7-0.2,2.5-0.5l11.4-4.9l4,2.2c0.2,0.2,0.3,0.4,0.3,0.7C43.4,32.2,43.4,32.5,43.2,32.6z M15.6,16.2h4.9
	c0.8,0,1.5-0.7,1.5-1.5V9.8c0-0.8-0.7-1.5-1.5-1.5h-4.9c-0.8,0-1.5,0.7-1.5,1.5v4.9C14.1,15.5,14.8,16.2,15.6,16.2z M15.1,9.8
	c0-0.3,0.3-0.5,0.5-0.5h4.9c0.3,0,0.5,0.3,0.5,0.5v4.9c0,0.3-0.3,0.5-0.5,0.5h-4.9c-0.3,0-0.5-0.3-0.5-0.5V9.8z M31.1,10.4h4.9
	c0.8,0,1.5,0.7,1.5,1.5v4.9c0,0.8-0.7,1.5-1.5,1.5h-4.9c-0.8,0-1.5-0.7-1.5-1.5v-4.9C29.5,11.1,30.2,10.4,31.1,10.4z M25,8.7h4.9
	c0.8,0,1.5-0.7,1.5-1.5V2.3c0-0.8-0.7-1.5-1.5-1.5H25c-0.8,0-1.5,0.7-1.5,1.5v4.9C23.5,8.1,24.2,8.7,25,8.7z M24.5,2.3
	c0-0.3,0.3-0.5,0.5-0.5h4.9c0.3,0,0.5,0.3,0.5,0.5v4.9c0,0.3-0.3,0.5-0.5,0.5H25c-0.3,0-0.5-0.3-0.5-0.5V2.3z"/>
</svg>
