<?xml version="1.0" encoding="iso-8859-1"?>
<!-- Generator: Adobe Illustrator 19.0.0, SVG Export Plug-In . SVG Version: 6.00 Build 0)  -->
<svg version="1.1" id="Layer_1" xmlns="http://www.w3.org/2000/svg" xmlns:xlink="http://www.w3.org/1999/xlink" x="0px" y="0px"
	 viewBox="0 0 512 512" style="enable-background:new 0 0 512 512;" xml:space="preserve">
<path style="fill:#EC5565;" d="M512,256.006C512,397.402,397.394,512.004,256.004,512C114.606,512.004,0,397.402,0,256.006
	C-0.007,114.61,114.606,0,256.004,0C397.394,0,512,114.614,512,256.006z"/>
<path style="fill:#D94453;" d="M512,256.005c0-0.899-71.043-73.815-71.66-74.273c-1.411-1.904-3.567-3.22-6.122-3.22h-12.517
	c-0.076-0.061-0.162-0.105-0.24-0.162c-0.457-0.617-102.891-103.05-103.507-103.507c-0.457-0.617-0.976-1.135-1.593-1.593
	c-1.411-1.904-3.567-3.22-6.122-3.22c-4.284,0-7.748,3.47-7.748,7.748v43.478c-0.108-0.09-45.91-45.957-46.527-46.415
	c-0.457-0.617-0.976-1.135-1.593-1.593c-1.411-1.904-3.567-3.22-6.122-3.22c-4.284,0-7.748,3.47-7.748,7.748v43.478
	c-0.108-0.09-0.235-0.151-0.347-0.235c-0.457-0.617-45.564-45.724-46.18-46.18c-0.457-0.617-0.976-1.135-1.593-1.593
	c-1.411-1.904-3.567-3.22-6.122-3.22c-4.283,0-7.748,3.47-7.748,7.748v54.241h-26.454c-11.047,0-20.037,8.99-20.037,20.042v18.702
	h-54.24c-4.284,0-7.748,3.47-7.748,7.748c0,2.553,1.314,4.708,3.219,6.121c0.457,0.617,47.157,47.316,47.774,47.773
	c0.084,0.113,0.144,0.24,0.235,0.348H77.783c-4.284,0-7.748,3.47-7.748,7.748c0,2.553,1.314,4.708,3.219,6.121
	c0.457,0.617,47.157,47.316,47.774,47.773c0.084,0.113,0.144,0.24,0.235,0.348H77.786c-4.284,0-7.748,3.47-7.748,7.748
	c0,2.553,1.314,4.707,3.219,6.119c0.457,0.617,59.897,60.055,60.513,60.513c0.405,0.547,0.846,1.025,1.379,1.449
	c1.004,1.589,2.23,2.999,3.626,4.247c0.503,0.563,54.851,54.956,55.243,55.329v4.069c0,2.554,1.315,4.709,3.22,6.122
	c0.457,0.617,69.45,69.61,70.066,70.066c0.366,0.494,0.811,0.889,1.276,1.276C404.123,505.132,512,393.185,512,256.005z"/>
<g>
	<path style="fill:#F6F6F6;" d="M434.22,256c4.283,0,7.748-3.47,7.748-7.748c0-4.279-3.466-7.748-7.748-7.748h-54.241v-46.492
		h54.241c4.283,0,7.748-3.47,7.748-7.748c0-4.279-3.466-7.748-7.748-7.748h-54.241v-26.451c0-11.052-8.99-20.042-20.037-20.042
		h-41.952V77.78c0-4.279-3.466-7.748-7.748-7.748s-7.748,3.47-7.748,7.748v54.241H256V77.78c0-4.279-3.466-7.748-7.748-7.748
		s-7.748,3.47-7.748,7.748v54.241h-46.492V77.78c0-4.279-3.466-7.748-7.748-7.748s-7.748,3.47-7.748,7.748v54.241h-26.454
		c-11.047,0-20.037,8.99-20.037,20.042v18.702H77.78c-4.283,0-7.748,3.47-7.748,7.748c0,4.279,3.466,7.748,7.748,7.748h54.241
		v46.492H77.78c-4.283,0-7.748,3.47-7.748,7.748c0,4.278,3.466,7.748,7.748,7.748h54.241v46.492H77.78
		c-4.283,0-7.748,3.47-7.748,7.748c0,4.279,3.466,7.748,7.748,7.748h54.241v49.697c0,11.052,8.99,20.042,20.037,20.042h41.952
		v54.241c0,4.279,3.466,7.748,7.748,7.748c4.283,0,7.748-3.47,7.748-7.748v-54.239H256v54.241c0,4.279,3.466,7.748,7.748,7.748
		s7.748-3.47,7.748-7.748v-54.241h46.492v54.241c0,4.279,3.466,7.748,7.748,7.748s7.748-3.47,7.748-7.748v-54.241h26.454
		c11.047,0,20.037-8.99,20.037-20.042v-41.948h54.241c4.283,0,7.748-3.47,7.748-7.748s-3.466-7.748-7.748-7.748h-54.239V256H434.22z
		 M364.481,359.937c0,2.505-2.035,4.544-4.541,4.544H152.058c-2.505,0-4.54-2.039-4.54-4.544V152.063
		c0-2.505,2.035-4.544,4.54-4.544H359.94c2.505,0,4.541,2.039,4.541,4.544V359.937z"/>
	<path style="fill:#F6F6F6;" d="M307.388,163.001H204.294c-22.95,0-41.627,18.645-41.627,41.563v102.901
		c0,22.917,18.675,41.563,41.627,41.563h103.093c22.951,0,41.619-18.645,41.619-41.563V204.563
		C349.007,181.646,330.339,163.001,307.388,163.001z M333.509,307.464c0,14.373-11.722,26.065-26.122,26.065H204.294
		c-14.407,0-26.129-11.691-26.129-26.065V204.562c0-14.373,11.722-26.065,26.129-26.065h103.093c14.4,0,26.122,11.691,26.122,26.065
		V307.464z"/>
</g>
</svg>
